<svg width="1536" height="1536" viewBox="0 0 1536 1536" fill="none" xmlns="http://www.w3.org/2000/svg">
<circle cx="768" cy="768" r="607" stroke="#999CA0" stroke-width="64"/>
<path d="M509.549 215.257C549.31 212.516 583.987 232.09 613.971 256.231C641.609 278.545 668.073 306.47 651.516 344.051C639.914 370.41 603.021 391.55 621.272 424.172C636.916 452.228 678.893 450.009 706.139 448.052C743.293 445.312 781.751 439.179 817.862 451.836C848.456 462.56 874.999 482.475 893.865 508.861C983.034 632.435 829.073 775.714 711.745 795.549C679.284 801.03 645.65 800.769 615.145 787.067C582.423 772.322 566.128 740.351 536.795 721.952C509.028 704.466 467.702 710.078 436.936 715.297C421.292 717.907 404.215 720.386 401.346 738.133C398.609 754.966 401.868 774.54 402.389 791.634C403.432 827.128 413.21 875.148 397.827 908.423C384.269 937.914 352.59 952.007 321.824 954.747C287.799 957.749 253.774 946.266 227.44 924.865C216.076 915.603 200.012 897.387 184 892.611M1359 859.828C1280.65 860.611 1227.85 918.027 1179.88 972.833C1156.93 999.062 1131.9 1028.55 1099.05 1042.25C1062.68 1057.39 1052.9 1029.86 1034.91 1004.28C1016.66 978.314 994.109 957.957 961.518 954.173C926.189 949.998 892.164 965.656 864.787 986.796C807.948 1031.03 769.099 1102.15 761.799 1173.79C757.888 1213.2 766.362 1253 791.001 1284.45C811.859 1311.2 850.317 1330.51 862.441 1363" stroke="#999CA0" stroke-width="64"/>
</svg>
